<svg width="180.000000" height="63.000000" viewBox="0 0 180 63" fill="none" xmlns="http://www.w3.org/2000/svg" xmlns:xlink="http://www.w3.org/1999/xlink">
	<desc>
			Created with Pixso.
	</desc>
	<defs>
		<filter id="filter_8_36_dd" x="1.000000" y="13.687500" width="176.523193" height="47.991211" filterUnits="userSpaceOnUse" color-interpolation-filters="sRGB">
			<feFlood flood-opacity="0" result="BackgroundImageFix"/>
			<feColorMatrix in="SourceAlpha" type="matrix" values="0 0 0 0 0 0 0 0 0 0 0 0 0 0 0 0 0 0 127 0" result="hardAlpha"/>
			<feOffset dx="0" dy="4"/>
			<feGaussianBlur stdDeviation="3.33333"/>
			<feComposite in2="hardAlpha" operator="out" k2="-1" k3="1"/>
			<feColorMatrix type="matrix" values="0 0 0 0 0 0 0 0 0 0 0 0 0 0 0 0 0 0 0.25 0"/>
			<feBlend mode="normal" in2="BackgroundImageFix" result="effect_dropShadow_1"/>
			<feBlend mode="normal" in="SourceGraphic" in2="effect_dropShadow_1" result="shape"/>
		</filter>
		<clipPath id="clip9_16">
			<rect id="画板 39" width="180.000000" height="63.000000" fill="white" fill-opacity="0"/>
		</clipPath>
		<linearGradient id="paint_linear_8_34_0" x1="11.000000" y1="19.687500" x2="35.680531" y2="19.687500" gradientUnits="userSpaceOnUse">
			<stop stop-color="#0088AA"/>
			<stop offset="0.508824" stop-color="#E524B0"/>
			<stop offset="1.000000" stop-color="#FF7F2A"/>
		</linearGradient>
	</defs>
	<rect id="画板 39" width="180.000000" height="63.000000" fill="#FFFFFF" fill-opacity="1.000000"/>
	<g clip-path="url(#clip9_16)">
		<g filter="url(#filter_8_36_dd)">
			<rect id="rect1" x="44.714233" y="39.999207" width="38.571140" height="1.910560" fill="#FF7F2A" fill-opacity="1.000000"/>
			<rect id="rect1" x="44.714233" y="39.999207" width="38.571140" height="1.910560" stroke="#000000" stroke-opacity="0" stroke-width="2.000001"/>
			<path id="text1" d="M59.92 22.1L59.92 32.55C59.92 33.85 59.53 34.91 58.75 35.73C57.97 36.56 56.95 36.97 55.71 36.97C54.22 36.97 53.07 36.28 52.28 34.91C51.8 35.65 51.28 36.18 50.72 36.5C50.16 36.81 49.47 36.97 48.65 36.97C47.36 36.97 46.36 36.56 45.67 35.73C44.98 34.91 44.63 33.73 44.63 32.18L44.63 22.1L48.93 22.1L48.93 31.54C48.93 32 48.97 32.31 49.04 32.46C49.46 32.46 50.13 32.33 50.13 31.61L50.13 22.1L54.42 22.1L54.42 31.54C54.42 31.99 54.46 32.29 54.54 32.45C54.96 32.45 55.63 32.3 55.63 31.54L55.63 22.1L59.92 22.1ZM66.19 26.01L66.19 36.6L62.23 36.6L62.23 26.01L66.19 26.01ZM64.22 21.28C64.76 21.28 65.22 21.47 65.61 21.85C66 22.23 66.2 22.68 66.2 23.19C66.2 23.75 66.01 24.2 65.64 24.55C65.27 24.91 64.8 25.08 64.22 25.08C63.64 25.08 63.16 24.91 62.79 24.55C62.42 24.2 62.24 23.75 62.24 23.19C62.24 22.68 62.43 22.23 62.82 21.85C63.22 21.47 63.68 21.28 64.22 21.28ZM75.13 26.16L75.13 30.35C74.57 30.35 74.19 30.45 73.97 30.66C73.77 30.87 73.64 31.28 73.58 31.9C73.4 33.94 72.61 35.39 71.21 36.23C70.47 36.67 69.42 36.89 68.06 36.89L67.51 36.89L67.51 32.68C68.14 32.68 68.78 32.55 69.04 32.29C69.32 32.02 69.48 31.55 69.52 30.89C69.58 29.8 69.68 29.04 69.82 28.6C69.96 28.16 70.26 27.73 70.71 27.29C71.48 26.54 72.56 26.16 73.93 26.16L75.13 26.16ZM82.92 22.1L86.87 22.1L86.87 30.93C86.87 32.55 86.45 33.87 85.6 34.89C85.12 35.48 84.5 35.95 83.74 36.3C82.99 36.64 82.22 36.82 81.43 36.82C79.86 36.82 78.53 36.29 77.46 35.22C76.38 34.16 75.84 32.86 75.84 31.31C75.84 29.82 76.37 28.52 77.44 27.43C78.52 26.34 79.79 25.8 81.25 25.8C81.49 25.8 81.84 25.82 82.31 25.86L82.31 30.24C81.99 29.98 81.66 29.86 81.34 29.86C80.93 29.86 80.58 30.01 80.28 30.31C79.99 30.61 79.85 30.97 79.85 31.4C79.85 31.81 80 32.16 80.3 32.46C80.6 32.75 80.97 32.9 81.39 32.9C82.41 32.9 82.92 32.19 82.92 30.78L82.92 22.1ZM93.96 25.79C95.46 25.79 96.74 26.33 97.8 27.41C98.87 28.49 99.41 29.78 99.41 31.29C99.41 32.82 98.87 34.13 97.78 35.2C96.7 36.28 95.4 36.82 93.87 36.82C92.34 36.82 91.03 36.28 89.94 35.2C88.85 34.12 88.31 32.81 88.31 31.29C88.31 29.74 88.85 28.44 89.94 27.38C91.03 26.32 92.37 25.79 93.96 25.79ZM93.86 29.71C93.43 29.71 93.07 29.86 92.78 30.17C92.48 30.48 92.33 30.86 92.33 31.3C92.33 31.74 92.48 32.12 92.78 32.43C93.08 32.74 93.44 32.9 93.86 32.9C94.28 32.9 94.64 32.74 94.93 32.43C95.24 32.12 95.39 31.74 95.39 31.3C95.39 30.86 95.24 30.48 94.95 30.17C94.65 29.86 94.29 29.71 93.86 29.71ZM101.06 36.6L101.06 26.15C101.06 24.85 101.45 23.79 102.24 22.97C103.02 22.15 104.03 21.74 105.28 21.74C106.76 21.74 107.9 22.42 108.7 23.79C109.19 23.05 109.71 22.53 110.27 22.22C110.82 21.9 111.51 21.74 112.33 21.74C113.63 21.74 114.62 22.15 115.31 22.97C116 23.79 116.35 24.97 116.35 26.52L116.35 36.6L112.05 36.6L112.05 27.17C112.05 26.7 112.02 26.39 111.94 26.24C111.52 26.24 110.86 26.37 110.86 27.09L110.86 36.6L106.56 36.6L106.56 27.17C106.56 26.71 106.52 26.4 106.45 26.24C106.02 26.24 105.36 26.4 105.36 27.17L105.36 36.6L101.06 36.6ZM129.03 31.95L123.03 31.95C122.94 31.65 122.89 31.37 122.89 31.11C122.89 30.76 122.95 30.41 123.08 30.07L125.09 30.07C124.95 29.28 124.51 28.89 123.77 28.89C123.27 28.89 122.87 29.1 122.56 29.53C122.25 29.94 122.1 30.48 122.1 31.14C122.1 31.83 122.24 32.39 122.54 32.81C122.84 33.24 123.24 33.45 123.73 33.45C124.12 33.45 124.5 33.25 124.87 32.85L127.12 35.57C126.07 36.4 124.9 36.82 123.62 36.82C122.05 36.82 120.74 36.29 119.67 35.23C118.61 34.18 118.08 32.87 118.08 31.31C118.08 29.76 118.61 28.45 119.68 27.38C120.76 26.31 122.09 25.78 123.65 25.78C125.18 25.78 126.47 26.3 127.5 27.35C128.55 28.39 129.07 29.68 129.07 31.21C129.07 31.36 129.05 31.61 129.03 31.95ZM140.07 36.6L136.12 36.6L136.12 30.62C136.12 30.01 135.86 29.71 135.36 29.71C134.87 29.71 134.62 30.01 134.62 30.62L134.62 36.6L130.67 36.6L130.67 30.7C130.67 29.31 131.12 28.15 132.03 27.21C132.94 26.26 134.06 25.79 135.37 25.79C136.88 25.79 138.09 26.34 139 27.43C139.72 28.29 140.07 29.48 140.07 31.01L140.07 36.6ZM145.9 22.1L145.9 26.16L147.68 26.16L147.68 30.36L145.9 30.36C145.9 31.2 146.03 31.78 146.29 32.1C146.56 32.42 147.05 32.58 147.75 32.58L147.75 36.75C146.86 36.75 145.56 36.55 144.76 36.14C143.97 35.72 143.33 35.15 142.86 34.44C142.25 33.52 141.95 32.31 141.95 30.8L141.95 22.1L145.9 22.1ZM154.63 25.79C156.13 25.79 157.41 26.33 158.47 27.41C159.54 28.49 160.08 29.78 160.08 31.29C160.08 32.82 159.54 34.13 158.45 35.2C157.37 36.28 156.07 36.82 154.54 36.82C153 36.82 151.7 36.28 150.61 35.2C149.52 34.12 148.98 32.81 148.98 31.29C148.98 29.74 149.52 28.44 150.61 27.38C151.7 26.32 153.04 25.79 154.63 25.79ZM154.53 29.71C154.1 29.71 153.74 29.86 153.45 30.17C153.15 30.48 153 30.86 153 31.3C153 31.74 153.15 32.12 153.45 32.43C153.75 32.74 154.11 32.9 154.53 32.9C154.95 32.9 155.31 32.74 155.6 32.43C155.91 32.12 156.06 31.74 156.06 31.3C156.06 30.86 155.91 30.48 155.62 30.17C155.32 29.86 154.96 29.71 154.53 29.71ZM167.52 25.9L167.52 30.15C167.24 30 166.99 29.92 166.77 29.92C166.05 29.92 165.69 30.47 165.69 31.58L165.69 36.6L161.73 36.6L161.73 30.81C161.73 29.28 162.15 28.06 162.98 27.16C163.81 26.24 164.92 25.79 166.31 25.79C166.62 25.79 167.02 25.83 167.52 25.9Z" fill="#252525" fill-opacity="1.000000" fill-rule="nonzero"/>
			<rect id="rect2" x="81.910156" y="39.999207" width="21.839434" height="1.910560" fill="#0088AA" fill-opacity="1.000000"/>
			<rect id="rect2" x="81.910156" y="39.999207" width="21.839434" height="1.910560" stroke="#000000" stroke-opacity="0" stroke-width="2.000001"/>
			<rect id="rect3" x="105.125244" y="39.999207" width="1.451922" height="1.910560" fill="#0088AA" fill-opacity="1.000000"/>
			<rect id="rect3" x="105.125244" y="39.999207" width="1.451922" height="1.910560" stroke="#000000" stroke-opacity="0" stroke-width="2.000005"/>
			<path id="rect4" d="M107.95 39.99L107.95 41.91L108.62 41.91C109.61 41.91 109.96 41.45 109.96 40.95C109.96 40.45 109.61 39.99 108.62 39.99L107.95 39.99Z" fill="#0088AA" fill-opacity="1.000000" fill-rule="nonzero"/>
			<path id="rect4" d="M107.95 41.91L108.62 41.91C109.61 41.91 109.96 41.45 109.96 40.95C109.96 40.45 109.61 39.99 108.62 39.99L107.95 39.99L107.95 41.91Z" stroke="#000000" stroke-opacity="0" stroke-width="1.999997"/>
			<rect id="rect93" x="44.714233" y="43.489380" width="7.506246" height="1.910560" fill="#FF7F2A" fill-opacity="1.000000"/>
			<rect id="rect93" x="44.714233" y="43.489380" width="7.506246" height="1.910560" stroke="#000000" stroke-opacity="0" stroke-width="2.000009"/>
			<rect id="rect94" x="52.220459" y="43.489380" width="21.839434" height="1.910560" fill="#0088AA" fill-opacity="1.000000"/>
			<rect id="rect94" x="52.220459" y="43.489380" width="21.839434" height="1.910560" stroke="#000000" stroke-opacity="0" stroke-width="2.000001"/>
			<rect id="rect95" x="75.435425" y="43.489380" width="1.451922" height="1.910560" fill="#0088AA" fill-opacity="1.000000"/>
			<rect id="rect95" x="75.435425" y="43.489380" width="1.451922" height="1.910560" stroke="#000000" stroke-opacity="0" stroke-width="2.000005"/>
			<path id="path51" d="M11 39.96C10.98 41.02 12.15 41.73 13.06 41.25C13.61 41 13.98 40.4 13.9 39.79C15.15 39.06 16.41 38.33 17.66 37.61C19.15 40.2 20.66 42.79 22.12 45.38C21.45 46.22 22.08 47.65 23.18 47.67C24.15 47.77 25.06 46.74 24.71 45.79C24.66 45.53 24.34 45.35 24.64 45.12C26.08 42.61 27.52 40.11 28.96 37.61C30.21 38.34 31.5 39.06 32.72 39.81C32.57 40.9 33.87 41.77 34.82 41.25C35.69 40.89 35.95 39.65 35.29 38.97C35.12 38.73 34.65 38.73 34.79 38.34C34.8 35.14 34.77 31.91 34.81 28.73C35.76 28.37 35.99 26.95 35.18 26.33C34.43 25.63 33.05 26 32.78 27.01C32.93 27.71 32.23 27.82 31.77 28.14C30.84 28.68 29.91 29.22 28.97 29.76C27.49 27.17 25.98 24.57 24.51 21.98C25.1 21.27 24.72 20.09 23.87 19.8C22.96 19.39 21.8 20.13 21.84 21.14C21.74 21.58 22.33 21.94 21.94 22.31C20.51 24.79 19.08 27.27 17.66 29.75C16.41 29.02 15.11 28.31 13.9 27.55C14.05 26.49 12.82 25.62 11.87 26.08C10.92 26.44 10.68 27.82 11.47 28.46C12.04 28.65 11.85 29.22 11.88 29.7C11.87 32.68 11.88 35.66 11.87 38.63C11.35 38.85 11 39.39 11 39.96ZM12.92 37.79L12.92 29.57C13.71 30.94 14.5 32.31 15.29 33.68C14.5 35.05 13.71 36.42 12.92 37.79ZM13.92 28.98C14.94 29.57 15.95 30.16 16.97 30.75C16.63 31.34 16.29 31.93 15.95 32.52C15.28 31.34 14.6 30.16 13.92 28.98ZM13.92 38.37L15.95 34.84C16.29 35.43 16.63 36.02 16.97 36.6L13.92 38.37ZM16.62 33.68C17.07 32.9 17.52 32.12 17.97 31.33C19.32 32.12 20.67 32.9 22.02 33.68C20.67 34.46 19.32 35.24 17.97 36.03C17.52 35.24 17.07 34.46 16.62 33.68ZM18.54 37.03L22.59 34.68L22.59 44.06L18.54 37.03ZM18.55 30.34C19.89 27.99 21.24 25.65 22.59 23.3L22.59 32.68C21.24 31.9 19.89 31.12 18.55 30.34ZM23.75 44.06L23.75 34.68C25.09 35.46 26.44 36.24 27.79 37.03C26.44 39.37 25.09 41.72 23.75 44.06ZM23.75 32.68L23.75 23.3C25.09 25.65 26.44 27.99 27.79 30.34C26.44 31.12 25.09 31.9 23.75 32.68ZM24.31 33.68L28.36 31.33C28.81 32.11 29.26 32.9 29.71 33.68C29.26 34.46 28.81 35.25 28.36 36.03C27.01 35.24 25.66 34.46 24.31 33.68ZM29.36 36.6C29.7 36.01 30.04 35.42 30.38 34.83C31.06 36.01 31.73 37.19 32.41 38.37C31.4 37.78 30.38 37.19 29.36 36.6ZM29.36 30.75C30.38 30.16 31.4 29.57 32.41 28.98C31.74 30.16 31.06 31.34 30.38 32.52C30.04 31.93 29.7 31.34 29.36 30.75ZM31.04 33.68C31.83 32.3 32.62 30.93 33.41 29.56L33.41 37.79C32.62 36.42 31.83 35.05 31.04 33.68Z" fill="url(#paint_linear_8_34_0)" fill-opacity="1.000000" fill-rule="nonzero"/>
		</g>
	</g>
</svg>
