<svg width="178.000000" height="63.000000" viewBox="0 0 178 63" fill="none" xmlns="http://www.w3.org/2000/svg" xmlns:xlink="http://www.w3.org/1999/xlink">
	<desc>
			Created with Pixso.
	</desc>
	<defs>
		<filter id="filter_8_47_dd" x="-4.000000" y="14.000000" width="176.523193" height="48.435547" filterUnits="userSpaceOnUse" color-interpolation-filters="sRGB">
			<feFlood flood-opacity="0" result="BackgroundImageFix"/>
			<feColorMatrix in="SourceAlpha" type="matrix" values="0 0 0 0 0 0 0 0 0 0 0 0 0 0 0 0 0 0 127 0" result="hardAlpha"/>
			<feOffset dx="0" dy="4"/>
			<feGaussianBlur stdDeviation="3.33333"/>
			<feComposite in2="hardAlpha" operator="out" k2="-1" k3="1"/>
			<feColorMatrix type="matrix" values="0 0 0 0 0 0 0 0 0 0 0 0 0 0 0 0 0 0 0.25 0"/>
			<feBlend mode="normal" in2="BackgroundImageFix" result="effect_dropShadow_1"/>
			<feBlend mode="normal" in="SourceGraphic" in2="effect_dropShadow_1" result="shape"/>
		</filter>
		<clipPath id="clip9_17">
			<rect id="画板 40" width="178.000000" height="63.000000" fill="white" fill-opacity="0"/>
		</clipPath>
		<linearGradient id="paint_linear_8_45_0" x1="6.000000" y1="20.000000" x2="30.680531" y2="20.000000" gradientUnits="userSpaceOnUse">
			<stop stop-color="#0088AA"/>
			<stop offset="0.508824" stop-color="#E524B0"/>
			<stop offset="1.000000" stop-color="#FF7F2A"/>
		</linearGradient>
	</defs>
	<rect id="画板 40" width="178.000000" height="63.000000" fill="#2B2A2A" fill-opacity="1.000000"/>
	<g clip-path="url(#clip9_17)">
		<g filter="url(#filter_8_47_dd)">
			<rect id="rect1" x="39.714233" y="40.634094" width="38.571140" height="1.940886" fill="#FF7F2A" fill-opacity="1.000000"/>
			<rect id="rect1" x="39.714233" y="40.634094" width="38.571140" height="1.940886" stroke="#000000" stroke-opacity="0" stroke-width="2.000001"/>
			<path id="text1" d="M54.92 22.45L54.92 33.06C54.92 34.39 54.53 35.47 53.75 36.3C52.97 37.14 51.95 37.55 50.71 37.55C49.22 37.55 48.07 36.86 47.28 35.47C46.8 36.22 46.28 36.75 45.72 37.08C45.16 37.39 44.47 37.55 43.65 37.55C42.36 37.55 41.36 37.14 40.67 36.3C39.98 35.47 39.63 34.26 39.63 32.69L39.63 22.45L43.93 22.45L43.93 32.04C43.93 32.51 43.97 32.82 44.04 32.98C44.46 32.98 45.13 32.84 45.13 32.11L45.13 22.45L49.42 22.45L49.42 32.04C49.42 32.5 49.46 32.81 49.54 32.96C49.96 32.96 50.63 32.81 50.63 32.04L50.63 22.45L54.92 22.45ZM61.19 26.42L61.19 37.19L57.23 37.19L57.23 26.42L61.19 26.42ZM59.22 21.62C59.76 21.62 60.22 21.81 60.61 22.2C61 22.58 61.2 23.04 61.2 23.56C61.2 24.12 61.01 24.58 60.64 24.94C60.27 25.3 59.8 25.48 59.22 25.48C58.64 25.48 58.16 25.3 57.79 24.94C57.42 24.58 57.24 24.12 57.24 23.56C57.24 23.04 57.43 22.58 57.82 22.2C58.22 21.81 58.68 21.62 59.22 21.62ZM70.13 26.57L70.13 30.83C69.57 30.83 69.19 30.93 68.97 31.15C68.77 31.36 68.64 31.78 68.58 32.4C68.4 34.48 67.61 35.95 66.21 36.81C65.47 37.25 64.42 37.48 63.06 37.48L62.51 37.48L62.51 33.2C63.14 33.2 63.78 33.07 64.04 32.8C64.32 32.53 64.48 32.05 64.52 31.38C64.58 30.28 64.68 29.5 64.82 29.06C64.96 28.61 65.26 28.17 65.71 27.73C66.48 26.96 67.56 26.57 68.93 26.57L70.13 26.57ZM77.92 22.45L81.87 22.45L81.87 31.42C81.87 33.07 81.45 34.41 80.6 35.45C80.12 36.05 79.5 36.52 78.74 36.87C77.99 37.23 77.22 37.4 76.43 37.4C74.86 37.4 73.53 36.86 72.46 35.78C71.38 34.7 70.84 33.38 70.84 31.81C70.84 30.29 71.37 28.98 72.44 27.87C73.52 26.76 74.79 26.21 76.25 26.21C76.49 26.21 76.84 26.23 77.31 26.27L77.31 30.72C76.99 30.46 76.66 30.33 76.34 30.33C75.93 30.33 75.58 30.49 75.28 30.79C74.99 31.1 74.85 31.46 74.85 31.9C74.85 32.31 75 32.67 75.3 32.98C75.6 33.27 75.97 33.42 76.39 33.42C77.41 33.42 77.92 32.7 77.92 31.27L77.92 22.45ZM88.96 26.2C90.46 26.2 91.74 26.75 92.8 27.85C93.87 28.94 94.41 30.25 94.41 31.79C94.41 33.34 93.87 34.67 92.78 35.76C91.7 36.85 90.4 37.4 88.87 37.4C87.34 37.4 86.03 36.85 84.94 35.76C83.85 34.66 83.31 33.34 83.31 31.79C83.31 30.21 83.85 28.89 84.94 27.81C86.03 26.74 87.37 26.2 88.96 26.2ZM88.86 30.18C88.43 30.18 88.07 30.34 87.78 30.65C87.48 30.96 87.33 31.34 87.33 31.8C87.33 32.24 87.48 32.63 87.78 32.94C88.08 33.26 88.44 33.42 88.86 33.42C89.28 33.42 89.64 33.26 89.93 32.94C90.24 32.63 90.39 32.24 90.39 31.8C90.39 31.34 90.24 30.96 89.95 30.65C89.65 30.34 89.29 30.18 88.86 30.18ZM96.06 37.19L96.06 26.56C96.06 25.25 96.45 24.17 97.24 23.33C98.02 22.5 99.03 22.08 100.28 22.08C101.76 22.08 102.9 22.78 103.7 24.17C104.19 23.42 104.71 22.88 105.27 22.57C105.82 22.24 106.51 22.08 107.33 22.08C108.63 22.08 109.62 22.5 110.31 23.33C111 24.17 111.35 25.37 111.35 26.94L111.35 37.19L107.05 37.19L107.05 27.6C107.05 27.12 107.02 26.81 106.94 26.66C106.52 26.66 105.86 26.79 105.86 27.52L105.86 37.19L101.56 37.19L101.56 27.6C101.56 27.13 101.52 26.82 101.45 26.66C101.02 26.66 100.36 26.81 100.36 27.6L100.36 37.19L96.06 37.19ZM124.03 32.46L118.03 32.46C117.94 32.15 117.89 31.86 117.89 31.6C117.89 31.24 117.95 30.89 118.08 30.55L120.09 30.55C119.95 29.75 119.51 29.35 118.77 29.35C118.27 29.35 117.87 29.56 117.56 30C117.25 30.42 117.1 30.97 117.1 31.64C117.1 32.33 117.24 32.9 117.54 33.33C117.84 33.76 118.24 33.98 118.73 33.98C119.12 33.98 119.5 33.78 119.87 33.37L122.12 36.14C121.07 36.98 119.9 37.4 118.62 37.4C117.05 37.4 115.74 36.87 114.67 35.79C113.61 34.72 113.08 33.39 113.08 31.81C113.08 30.23 113.61 28.9 114.68 27.81C115.76 26.73 117.09 26.18 118.65 26.18C120.18 26.18 121.47 26.72 122.5 27.78C123.55 28.84 124.07 30.15 124.07 31.7C124.07 31.86 124.05 32.11 124.03 32.46ZM135.07 37.19L131.12 37.19L131.12 31.11C131.12 30.49 130.86 30.18 130.36 30.18C129.87 30.18 129.62 30.49 129.62 31.11L129.62 37.19L125.67 37.19L125.67 31.18C125.67 29.78 126.12 28.6 127.03 27.64C127.94 26.68 129.06 26.2 130.37 26.2C131.88 26.2 133.09 26.75 134 27.87C134.72 28.74 135.07 29.95 135.07 31.51L135.07 37.19ZM140.9 22.45L140.9 26.57L142.68 26.57L142.68 30.84L140.9 30.84C140.9 31.69 141.03 32.28 141.29 32.61C141.56 32.93 142.05 33.09 142.75 33.09L142.75 37.34C141.86 37.34 140.56 37.14 139.76 36.71C138.97 36.29 138.33 35.71 137.86 34.98C137.25 34.05 136.95 32.82 136.95 31.29L136.95 22.45L140.9 22.45ZM149.63 26.2C151.13 26.2 152.41 26.75 153.47 27.85C154.54 28.94 155.08 30.25 155.08 31.79C155.08 33.34 154.54 34.67 153.45 35.76C152.37 36.85 151.07 37.4 149.54 37.4C148 37.4 146.7 36.85 145.61 35.76C144.52 34.66 143.98 33.34 143.98 31.79C143.98 30.21 144.52 28.89 145.61 27.81C146.7 26.74 148.04 26.2 149.63 26.2ZM149.53 30.18C149.1 30.18 148.74 30.34 148.45 30.65C148.15 30.96 148 31.34 148 31.8C148 32.24 148.15 32.63 148.45 32.94C148.75 33.26 149.11 33.42 149.53 33.42C149.95 33.42 150.31 33.26 150.6 32.94C150.91 32.63 151.06 32.24 151.06 31.8C151.06 31.34 150.91 30.96 150.62 30.65C150.32 30.34 149.96 30.18 149.53 30.18ZM162.52 26.31L162.52 30.63C162.24 30.47 161.99 30.4 161.77 30.4C161.05 30.4 160.69 30.96 160.69 32.08L160.69 37.19L156.73 37.19L156.73 31.3C156.73 29.75 157.15 28.51 157.98 27.59C158.81 26.66 159.92 26.2 161.31 26.2C161.62 26.2 162.02 26.24 162.52 26.31Z" fill="#FFE2CE" fill-opacity="1.000000" fill-rule="nonzero"/>
			<rect id="rect2" x="76.910278" y="40.634094" width="21.839434" height="1.940886" fill="#0088AA" fill-opacity="1.000000"/>
			<rect id="rect2" x="76.910278" y="40.634094" width="21.839434" height="1.940886" stroke="#000000" stroke-opacity="0" stroke-width="2.000001"/>
			<rect id="rect3" x="100.125244" y="40.634094" width="1.451922" height="1.940886" fill="#0088AA" fill-opacity="1.000000"/>
			<rect id="rect3" x="100.125244" y="40.634094" width="1.451922" height="1.940886" stroke="#000000" stroke-opacity="0" stroke-width="2.000005"/>
			<path id="rect4" d="M102.95 40.63L102.95 42.57L103.62 42.57C104.62 42.57 104.96 42.11 104.96 41.6C104.96 41.09 104.62 40.63 103.62 40.63L102.95 40.63Z" fill="#0088AA" fill-opacity="1.000000" fill-rule="nonzero"/>
			<path id="rect4" d="M102.95 42.57L103.62 42.57C104.62 42.57 104.96 42.11 104.96 41.6C104.96 41.09 104.62 40.63 103.62 40.63L102.95 40.63L102.95 42.57Z" stroke="#000000" stroke-opacity="0" stroke-width="1.999997"/>
			<rect id="rect93" x="39.714233" y="44.179688" width="7.506246" height="1.940886" fill="#FF7F2A" fill-opacity="1.000000"/>
			<rect id="rect93" x="39.714233" y="44.179688" width="7.506246" height="1.940886" stroke="#000000" stroke-opacity="0" stroke-width="2.000009"/>
			<rect id="rect94" x="47.220459" y="44.179688" width="21.839434" height="1.940886" fill="#0088AA" fill-opacity="1.000000"/>
			<rect id="rect94" x="47.220459" y="44.179688" width="21.839434" height="1.940886" stroke="#000000" stroke-opacity="0" stroke-width="2.000001"/>
			<rect id="rect95" x="70.435425" y="44.179688" width="1.451922" height="1.940886" fill="#0088AA" fill-opacity="1.000000"/>
			<rect id="rect95" x="70.435425" y="44.179688" width="1.451922" height="1.940886" stroke="#000000" stroke-opacity="0" stroke-width="2.000005"/>
			<path id="path51" d="M6 40.59C5.98 41.67 7.15 42.4 8.06 41.9C8.61 41.65 8.98 41.04 8.9 40.42C10.15 39.68 11.41 38.94 12.66 38.2C14.15 40.83 15.66 43.47 17.12 46.1C16.45 46.95 17.08 48.4 18.18 48.42C19.15 48.53 20.06 47.48 19.71 46.51C19.66 46.26 19.34 46.07 19.64 45.83C21.08 43.29 22.52 40.75 23.96 38.2C25.21 38.95 26.5 39.68 27.72 40.44C27.57 41.55 28.87 42.44 29.82 41.91C30.69 41.54 30.95 40.28 30.29 39.59C30.12 39.34 29.65 39.34 29.79 38.94C29.8 35.69 29.77 32.42 29.81 29.18C30.76 28.82 30.99 27.37 30.18 26.75C29.43 26.03 28.05 26.41 27.78 27.44C27.93 28.15 27.23 28.27 26.77 28.58C25.84 29.13 24.91 29.68 23.97 30.23C22.49 27.6 20.98 24.96 19.51 22.33C20.1 21.6 19.72 20.41 18.87 20.11C17.96 19.7 16.8 20.45 16.84 21.47C16.74 21.93 17.33 22.29 16.94 22.66C15.51 25.18 14.08 27.7 12.66 30.23C11.41 29.48 10.11 28.76 8.9 27.99C9.05 26.91 7.82 26.03 6.87 26.5C5.92 26.86 5.68 28.26 6.47 28.92C7.04 29.11 6.85 29.69 6.88 30.18C6.87 33.2 6.88 36.23 6.87 39.25C6.35 39.47 6 40.02 6 40.59ZM7.92 38.39L7.92 30.04C8.71 31.43 9.5 32.82 10.29 34.21C9.5 35.61 8.71 37 7.92 38.39ZM8.92 29.44C9.94 30.04 10.95 30.64 11.97 31.24C11.63 31.84 11.29 32.44 10.95 33.04C10.28 31.84 9.6 30.64 8.92 29.44ZM8.92 38.98L10.95 35.39C11.29 35.99 11.63 36.59 11.97 37.19L8.92 38.98ZM11.62 34.22C12.07 33.42 12.52 32.63 12.97 31.83C14.32 32.63 15.67 33.42 17.02 34.21C15.67 35.01 14.32 35.8 12.97 36.6C12.52 35.8 12.07 35.01 11.62 34.22ZM13.54 37.61L17.59 35.23L17.59 44.76L13.54 37.61ZM13.55 30.82C14.89 28.44 16.24 26.06 17.59 23.67L17.59 33.2C16.24 32.41 14.89 31.61 13.55 30.82ZM18.75 44.76L18.75 35.23C20.09 36.03 21.44 36.82 22.79 37.61C21.44 40 20.09 42.38 18.75 44.76ZM18.75 33.2L18.75 23.67C20.09 26.05 21.44 28.44 22.79 30.82C21.44 31.61 20.09 32.41 18.75 33.2ZM19.31 34.21L23.36 31.83C23.81 32.62 24.26 33.42 24.71 34.22C24.26 35.01 23.81 35.81 23.36 36.6C22.01 35.8 20.66 35.01 19.31 34.21ZM24.36 37.19C24.7 36.59 25.04 35.99 25.38 35.39C26.06 36.59 26.73 37.78 27.41 38.98C26.4 38.38 25.38 37.78 24.36 37.19ZM24.36 31.24C25.38 30.64 26.4 30.04 27.41 29.44C26.74 30.64 26.06 31.84 25.38 33.04C25.04 32.44 24.7 31.84 24.36 31.24ZM26.04 34.21C26.83 32.82 27.62 31.42 28.41 30.03L28.41 38.39C27.62 37 26.83 35.6 26.04 34.21Z" fill="url(#paint_linear_8_45_0)" fill-opacity="1.000000" fill-rule="nonzero"/>
		</g>
	</g>
</svg>
